<?xml version="1.0" encoding="UTF-8"?>
<svg version="1.1" xmlns="http://www.w3.org/2000/svg" width="192" height="192">
<path d="M0 0 C0.495 0.474375 0.99 0.94875 1.5 1.4375 C1.5 2.0975 1.5 2.7575 1.5 3.4375 C2.551875 3.499375 3.60375 3.56125 4.6875 3.625 C9.25369788 4.59812414 10.61529545 5.83161931 13.5 9.4375 C16.60061216 14.46854137 16.90891916 18.3414103 16.75 24.0625 C16.74484375 24.81273438 16.7396875 25.56296875 16.734375 26.3359375 C16.68441407 29.85818301 16.44018301 33.0488845 15.5 36.4375 C16.82 37.0975 18.14 37.7575 19.5 38.4375 C19.5 40.7475 19.5 43.0575 19.5 45.4375 C23.46 45.4375 27.42 45.4375 31.5 45.4375 C31.5 46.4275 31.5 47.4175 31.5 48.4375 C30.53578125 48.46328125 29.5715625 48.4890625 28.578125 48.515625 C26.68320313 48.60070313 26.68320313 48.60070313 24.75 48.6875 C23.49703125 48.73390625 22.2440625 48.7803125 20.953125 48.828125 C17.04644809 49.51753857 16.01578272 50.4985015 13.5 53.4375 C12.84 53.4375 12.18 53.4375 11.5 53.4375 C11.5825 54.4275 11.665 55.4175 11.75 56.4375 C11.75 62.1374618 8.78800122 66.35688265 5.875 71.0625 C2.26344702 74.67405298 -2.03878879 76.99956246 -6.5 79.4375 C-7.17675781 79.82550781 -7.85351562 80.21351562 -8.55078125 80.61328125 C-12.23934436 82.17297427 -15.72253315 81.47705888 -19.5 80.4375 C-27.80094384 76.1861252 -35.48905524 69.47033429 -38.5 60.4375 C-38.53954234 58.10450175 -38.54401732 55.77041811 -38.5 53.4375 C-39.304375 53.14875 -40.10875 52.86 -40.9375 52.5625 C-43.5 51.4375 -43.5 51.4375 -44.5 49.4375 C-47.77555608 48.96748967 -47.77555608 48.96748967 -51.5625 48.8125 C-52.85285156 48.73773438 -54.14320312 48.66296875 -55.47265625 48.5859375 C-56.47167969 48.53695312 -57.47070312 48.48796875 -58.5 48.4375 C-58.5 47.4475 -58.5 46.4575 -58.5 45.4375 C-54.54 45.4375 -50.58 45.4375 -46.5 45.4375 C-46.5 43.1275 -46.5 40.8175 -46.5 38.4375 C-45.18 37.7775 -43.86 37.1175 -42.5 36.4375 C-42.995 34.9525 -42.995 34.9525 -43.5 33.4375 C-44.90001256 13.5773218 -44.90001256 13.5773218 -38.5 5.4375 C-28.42475681 -6.03951616 -12.9590315 -8.09939469 0 0 Z " fill="#C1E7FE" transform="translate(63.5,11.5625)"/>
<path d="M0 0 C0.495 0.474375 0.99 0.94875 1.5 1.4375 C1.5 2.0975 1.5 2.7575 1.5 3.4375 C2.551875 3.499375 3.60375 3.56125 4.6875 3.625 C9.25369788 4.59812414 10.61529545 5.83161931 13.5 9.4375 C16.60061216 14.46854137 16.90891916 18.3414103 16.75 24.0625 C16.74484375 24.81273438 16.7396875 25.56296875 16.734375 26.3359375 C16.68441407 29.85818301 16.44018301 33.0488845 15.5 36.4375 C16.82 37.0975 18.14 37.7575 19.5 38.4375 C19.54241723 40.77044775 19.54092937 43.10452567 19.5 45.4375 C18.5 46.4375 18.5 46.4375 16.27514648 46.55102539 C15.31680908 46.54578857 14.35847168 46.54055176 13.37109375 46.53515625 C12.33662109 46.53193359 11.30214844 46.52871094 10.23632812 46.52539062 C9.14771484 46.51701172 8.05910156 46.50863281 6.9375 46.5 C5.2987793 46.49323242 5.2987793 46.49323242 3.62695312 46.48632812 C0.91791505 46.47449826 -1.79101599 46.45801543 -4.5 46.4375 C-4.17 44.7875 -3.84 43.1375 -3.5 41.4375 C-1.85 41.7675 -0.2 42.0975 1.5 42.4375 C1.5 43.4275 1.5 44.4175 1.5 45.4375 C3.81 45.4375 6.12 45.4375 8.5 45.4375 C8.4396826 42.56035987 8.35254404 39.68819146 8.25 36.8125 C8.23582031 36.00425781 8.22164062 35.19601563 8.20703125 34.36328125 C7.98781034 28.97044682 7.1167328 25.69247976 3.5 21.4375 C0.89562767 20.02559436 0.89562767 20.02559436 -1.5 19.4375 C-2.28375 20.18 -3.0675 20.9225 -3.875 21.6875 C-11.00745901 27.53977406 -18.56853819 28.8815341 -27.6171875 28.96875 C-30.57123898 29.23408038 -30.57123898 29.23408038 -32.8359375 31.078125 C-34.93589497 34.05552949 -35.09274651 36.0706698 -35.25 39.6875 C-35.30671875 40.76515625 -35.3634375 41.8428125 -35.421875 42.953125 C-35.46054687 44.18289062 -35.46054687 44.18289062 -35.5 45.4375 C-33.19 45.4375 -30.88 45.4375 -28.5 45.4375 C-28.17 44.1175 -27.84 42.7975 -27.5 41.4375 C-25.85 41.7675 -24.2 42.0975 -22.5 42.4375 C-22.5 43.7575 -22.5 45.0775 -22.5 46.4375 C-26.31248426 46.46637236 -30.1249407 46.48425492 -33.9375 46.5 C-35.02611328 46.50837891 -36.11472656 46.51675781 -37.23632812 46.52539062 C-38.27080078 46.52861328 -39.30527344 46.53183594 -40.37109375 46.53515625 C-41.32943115 46.54039307 -42.28776855 46.54562988 -43.27514648 46.55102539 C-45.5 46.4375 -45.5 46.4375 -46.5 45.4375 C-46.54092937 43.10452567 -46.54241723 40.77044775 -46.5 38.4375 C-45.18 37.7775 -43.86 37.1175 -42.5 36.4375 C-42.995 34.9525 -42.995 34.9525 -43.5 33.4375 C-44.90001256 13.5773218 -44.90001256 13.5773218 -38.5 5.4375 C-28.42475681 -6.03951616 -12.9590315 -8.09939469 0 0 Z " fill="#AEBFD2" transform="translate(63.5,11.5625)"/>
<path d="M0 0 C5.12307611 2.09580386 7.4330974 4.08747951 10 9 C10.4591911 12.14722519 10.38152089 15.20332306 10.25 18.375 C10.23195312 19.20644531 10.21390625 20.03789063 10.1953125 20.89453125 C10.14851573 22.93019074 10.07678298 24.9652509 10 27 C7.69 27 5.38 27 3 27 C2.505 25.515 2.505 25.515 2 24 C0.68 24 -0.64 24 -2 24 C-2.33 24.99 -2.66 25.98 -3 27 C-8.94 27 -14.88 27 -21 27 C-21.33 26.01 -21.66 25.02 -22 24 C-23.32 24 -24.64 24 -26 24 C-26.33 24.99 -26.66 25.98 -27 27 C-29.31 27 -31.62 27 -34 27 C-34.75842697 16.43258427 -34.75842697 16.43258427 -32.3125 11.8125 C-27.9613301 9.43167119 -24.2589819 9.49804279 -19.359375 9.29296875 C-11.57732404 8.61430152 -5.58759842 5.29351429 0 0 Z " fill="#FDECA2" transform="translate(62,30)"/>
<path d="M0 0 C0.495 0.474375 0.99 0.94875 1.5 1.4375 C1.5 2.0975 1.5 2.7575 1.5 3.4375 C2.551875 3.499375 3.60375 3.56125 4.6875 3.625 C9.25369788 4.59812414 10.61529545 5.83161931 13.5 9.4375 C16.60061216 14.46854137 16.90891916 18.3414103 16.75 24.0625 C16.74484375 24.81273438 16.7396875 25.56296875 16.734375 26.3359375 C16.68441407 29.85818301 16.44018301 33.0488845 15.5 36.4375 C16.82 37.0975 18.14 37.7575 19.5 38.4375 C19.54241723 40.77044775 19.54092937 43.10452567 19.5 45.4375 C18.5 46.4375 18.5 46.4375 16.27514648 46.55102539 C15.31680908 46.54578857 14.35847168 46.54055176 13.37109375 46.53515625 C12.33662109 46.53193359 11.30214844 46.52871094 10.23632812 46.52539062 C9.14771484 46.51701172 8.05910156 46.50863281 6.9375 46.5 C5.2987793 46.49323242 5.2987793 46.49323242 3.62695312 46.48632812 C0.91791505 46.47449826 -1.79101599 46.45801543 -4.5 46.4375 C-4.17 44.7875 -3.84 43.1375 -3.5 41.4375 C-1.85 41.7675 -0.2 42.0975 1.5 42.4375 C1.5 43.4275 1.5 44.4175 1.5 45.4375 C3.81 45.4375 6.12 45.4375 8.5 45.4375 C8.4396826 42.56035987 8.35254404 39.68819146 8.25 36.8125 C8.23582031 36.00425781 8.22164062 35.19601563 8.20703125 34.36328125 C7.98781034 28.97044682 7.1167328 25.69247976 3.5 21.4375 C0.89562767 20.02559436 0.89562767 20.02559436 -1.5 19.4375 C-2.28375 20.18 -3.0675 20.9225 -3.875 21.6875 C-11.00745901 27.53977406 -18.56853819 28.8815341 -27.6171875 28.96875 C-31.16704914 29.54596327 -32.28245339 30.67330236 -34.5 33.4375 C-35.71693876 35.87137753 -35.81959896 37.85588846 -36.0625 40.5625 C-36.18818359 41.92761719 -36.18818359 41.92761719 -36.31640625 43.3203125 C-36.37699219 44.01898438 -36.43757813 44.71765625 -36.5 45.4375 C-36.83 45.4375 -37.16 45.4375 -37.5 45.4375 C-38.18867618 34.68649957 -38.18867618 34.68649957 -35.625 30.8125 C-32.56863665 27.39656449 -30.61455571 27.30420691 -26.14135742 26.89282227 C-18.01428834 26.11356504 -9.85296539 24.92748367 -3.88671875 18.7734375 C-3.20029297 18.11214844 -3.20029297 18.11214844 -2.5 17.4375 C1.88736169 17.55295689 4.49052337 19.34882661 7.5 22.4375 C10.63185031 28.04118257 11.12543837 34.13453196 11.5 40.4375 C15.53987226 25.67592524 15.53987226 25.67592524 11.5 11.4375 C7.98055726 7.13595888 4.59472606 5.49326666 -0.5 3.4375 C-2.51182457 2.12207624 -4.51399663 0.7915932 -6.5 -0.5625 C-13.09022168 -2.75924056 -21.24919341 -2.52536297 -27.625 0.34375 C-34.17239032 4.16306102 -38.4171083 8.53028085 -40.87890625 15.7734375 C-42.75962552 23.84042206 -41.40341827 30.98209058 -39.05859375 38.80859375 C-38.48981677 41.48542529 -38.59178831 42.89330434 -39.5 45.4375 C-44.06171029 35.05146317 -45.65180971 23.3803552 -42.65234375 12.30859375 C-39.35191673 4.98052697 -33.70638044 -0.59467231 -26.1875 -3.5 C-16.85450181 -6.09071157 -8.22376101 -5.13985063 0 0 Z " fill="#6B7E93" transform="translate(63.5,11.5625)"/>
<path d="M0 0 C4.38736169 0.11545689 6.99052337 1.91132661 10 5 C12.80126993 10.01218958 13.42139434 15.2433511 13.7890625 20.8984375 C13.87979105 23.05595823 13.87979105 23.05595823 15 25 C15.66 23.02 16.32 21.04 17 19 C20.875 19.875 20.875 19.875 22 21 C22.125 24.5 22.125 24.5 22 28 C21 29 21 29 18.77514648 29.11352539 C17.81680908 29.10828857 16.85847168 29.10305176 15.87109375 29.09765625 C14.31938477 29.09282227 14.31938477 29.09282227 12.73632812 29.08789062 C11.64771484 29.07951172 10.55910156 29.07113281 9.4375 29.0625 C7.7987793 29.05573242 7.7987793 29.05573242 6.12695312 29.04882812 C3.41791505 29.03699826 0.70898401 29.02051543 -2 29 C-1.67 27.35 -1.34 25.7 -1 24 C0.65 24.33 2.3 24.66 4 25 C4 25.99 4 26.98 4 28 C6.31 28 8.62 28 11 28 C10.9396826 25.12285987 10.85254404 22.25069146 10.75 19.375 C10.73582031 18.56675781 10.72164062 17.75851563 10.70703125 16.92578125 C10.48781034 11.53294682 9.6167328 8.25497976 6 4 C3.39562767 2.58809436 3.39562767 2.58809436 1 2 C0.21625 2.7425 -0.5675 3.485 -1.375 4.25 C-8.50745901 10.10227406 -16.06853819 11.4440341 -25.1171875 11.53125 C-28.66704914 12.10846327 -29.78245339 13.23580236 -32 16 C-33.21693876 18.43387753 -33.31959896 20.41838846 -33.5625 23.125 C-33.68818359 24.49011719 -33.68818359 24.49011719 -33.81640625 25.8828125 C-33.87699219 26.58148438 -33.93757813 27.28015625 -34 28 C-34.33 28 -34.66 28 -35 28 C-35.68867618 17.24899957 -35.68867618 17.24899957 -33.125 13.375 C-30.06863665 9.95906449 -28.11455571 9.86670691 -23.64135742 9.45532227 C-15.51428834 8.67606504 -7.35296539 7.48998367 -1.38671875 1.3359375 C-0.92910156 0.89507813 -0.47148438 0.45421875 0 0 Z " fill="#82919A" transform="translate(61,29)"/>
<path d="M0 0 C6.73784404 3.25275229 6.73784404 3.25275229 7.9921875 6.828125 C8.28351562 7.95734375 8.57484375 9.0865625 8.875 10.25 C11.19512406 18.14015974 13.55537598 21.75732148 20.8125 25.875 C22.201943 26.59578772 23.59571819 27.30856713 25 28 C25 28.66 25 29.32 25 30 C32.57486658 31.03517699 37.29990408 29.43650842 43.515625 25.046875 C50.06110369 19.65405923 52.33131356 14.59750255 54.2109375 6.43359375 C55.28351784 3.12558606 57.01878925 1.69203854 60 0 C60.66 0.33 61.32 0.66 62 1 C60.71034824 2.37562854 59.37310707 3.70766393 58 5 C57.34 5 56.68 5 56 5 C56.0825 5.99 56.165 6.98 56.25 8 C56.25 13.6999618 53.28800122 17.91938265 50.375 22.625 C46.76344702 26.23655298 42.46121121 28.56206246 38 31 C36.98486328 31.58201172 36.98486328 31.58201172 35.94921875 32.17578125 C32.26065564 33.73547427 28.77746685 33.03955888 25 32 C16.69905616 27.7486252 9.01094476 21.03283429 6 12 C5.96045766 9.66700175 5.95598268 7.33291811 6 5 C5.195625 4.731875 4.39125 4.46375 3.5625 4.1875 C2.716875 3.795625 1.87125 3.40375 1 3 C0.67 2.01 0.34 1.02 0 0 Z " fill="#96B3D0" transform="translate(19,60)"/>
<path d="M0 0 C0.99 0 1.98 0 3 0 C3 4.95 3 9.9 3 15 C-1.95 15 -6.9 15 -12 15 C-12 14.01 -12 13.02 -12 12 C-8.04 12 -4.08 12 0 12 C0 8.04 0 4.08 0 0 Z " fill="#778B9B" transform="translate(92,80)"/>
<path d="M0 0 C0.99 0 1.98 0 3 0 C3 3.96 3 7.92 3 12 C6.96 12 10.92 12 15 12 C15 12.99 15 13.98 15 15 C10.05 15 5.1 15 0 15 C0 10.05 0 5.1 0 0 Z " fill="#778B9B" transform="translate(5,80)"/>
<path d="M0 0 C4.95 0 9.9 0 15 0 C15 4.95 15 9.9 15 15 C14.01 15 13.02 15 12 15 C12 11.04 12 7.08 12 3 C8.04 3 4.08 3 0 3 C0 2.01 0 1.02 0 0 Z " fill="#778B9B" transform="translate(80,5)"/>
<path d="M0 0 C4.95 0 9.9 0 15 0 C15 0.99 15 1.98 15 3 C11.04 3 7.08 3 3 3 C3 6.96 3 10.92 3 15 C2.01 15 1.02 15 0 15 C0 10.05 0 5.1 0 0 Z " fill="#778B9B" transform="translate(5,5)"/>
<path d="M0 0 C4 1 4 1 5 2 C5.04092937 4.33297433 5.04241723 6.66705225 5 9 C2.69 9 0.38 9 -2 9 C-1.34 6.03 -0.68 3.06 0 0 Z " fill="#DFCD7A" transform="translate(78,48)"/>
<path d="M0 0 C0.33 0 0.66 0 1 0 C1 1.65 1 3.3 1 5 C3.31 5 5.62 5 8 5 C8 5.33 8 5.66 8 6 C0.41 6 -7.18 6 -15 6 C-14.67 4.35 -14.34 2.7 -14 1 C-12.35 1.33 -10.7 1.66 -9 2 C-9 2.99 -9 3.98 -9 5 C-6.03 5 -3.06 5 0 5 C0 3.35 0 1.7 0 0 Z " fill="#B1CAD8" transform="translate(74,52)"/>
<path d="M0 0 C0.99 0 1.98 0 3 0 C3.66 2.97 4.32 5.94 5 9 C2.69 9 0.38 9 -2 9 C-2.125 5.625 -2.125 5.625 -2 2 C-1.34 1.34 -0.68 0.68 0 0 Z " fill="#E0CE7A" transform="translate(19,48)"/>
<path d="M0 0 C2.5 1.375 2.5 1.375 5 3 C5 3.66 5 4.32 5 5 C6.051875 5.061875 7.10375 5.12375 8.1875 5.1875 C12.65148252 6.13884054 14.17608375 7.49149799 17 11 C17 11.66 17 12.32 17 13 C16.34 13 15.68 13 15 13 C14.278125 12.236875 13.55625 11.47375 12.8125 10.6875 C9.70675463 7.71978775 6.97280658 6.54498034 3 5 C2.01 4.34 1.02 3.68 0 3 C0 2.01 0 1.02 0 0 Z " fill="#5E6F9D" transform="translate(60,10)"/>
<path d="M0 0 C1.65 0.33 3.3 0.66 5 1 C5 1.99 5 2.98 5 4 C3.02 4 1.04 4 -1 4 C-0.67 2.68 -0.34 1.36 0 0 Z " fill="#3C454F" transform="translate(60,53)"/>
<path d="M0 0 C1.65 0.33 3.3 0.66 5 1 C5 1.99 5 2.98 5 4 C3.02 4 1.04 4 -1 4 C-0.67 2.68 -0.34 1.36 0 0 Z " fill="#3C454F" transform="translate(36,53)"/>
<path d="M0 0 C3.875 0.875 3.875 0.875 5 2 C5.04092937 4.33297433 5.04241723 6.66705225 5 9 C4.34 9 3.68 9 3 9 C2.690625 7.88625 2.38125 6.7725 2.0625 5.625 C1.17673517 2.2054845 1.17673517 2.2054845 0 0 Z " fill="#BEA146" transform="translate(78,48)"/>
<path d="M0 0 C0.99 0.33 1.98 0.66 3 1 C2.34 1.66 1.68 2.32 1 3 C0.60235737 4.98821313 0.26224651 6.98944339 0 9 C-0.66 9 -1.32 9 -2 9 C-2.125 5.625 -2.125 5.625 -2 2 C-1.34 1.34 -0.68 0.68 0 0 Z " fill="#BEA246" transform="translate(19,48)"/>
<path d="M0 0 C0.66 0 1.32 0 2 0 C0.66666667 3.33333333 -0.66666667 6.66666667 -2 10 C-2.66 9.67 -3.32 9.34 -4 9 C-2.94124926 5.59687262 -1.99097846 2.98646769 0 0 Z " fill="#647496" transform="translate(25,17)"/>
</svg>
